# xmcd CD database file
#
# Track frame offsets:
#	150
#	11347
#	23422
#	34517
#	48182
#	66425
#	80562
#	92097
#	103465
#	119292
#	129942
#	142745
#	154110
#	170432
#
# Disc length: 2404 seconds
#
# Revision: 0
# Processed by: cddbd v1.5.1PL0 Copyright (c) Steve Scherf et al.
# Submitted via: CDex 1.50beta10
#
DISCID=a709620e
DTITLE=Ray Kernaghan - Me and Louie On The Road
DYEAR=1900
DGENRE=Country
TTITLE0=Me and Louie On The Road
TTITLE1=Rocking Alone In An Old Rocking Chair
TTITLE2=Baby, We're Really In Love
TTITLE3=Blue Velvet Band
TTITLE4=Today I Started Loving You Again
TTITLE5=A Daisy A Day
TTITLE6=No Truckin' Worries Sue
TTITLE7=Mona Lisa
TTITLE8=Suvla Bay
TTITLE9=Blackboard On My Heart
TTITLE10=Room Full Of Roses
TTITLE11=Cold Cold Hands
TTITLE12=There's A Bridle Hanging On The Wall
TTITLE13=You've Had Your Share Of Hell
EXTD=
EXTT0=
EXTT1=
EXTT2=
EXTT3=
EXTT4=
EXTT5=
EXTT6=
EXTT7=
EXTT8=
EXTT9=
EXTT10=
EXTT11=
EXTT12=
EXTT13=
PLAYORDER=
